<svg xmlns="http://www.w3.org/2000/svg" xml:space="preserve" width="600px" height="600px" x="0px" y="0px" viewBox="0 0 600 600"><path d="M299.721 57.697c-135.806 0-245.898 110.092-245.898 245.897 0 135.807 110.093 245.899 245.898 245.899S545.618 439.4 545.618 303.594c0-135.805-110.092-245.897-245.897-245.897zm170.292 361.929c-5.889 14.214-5.505 29.454-.139 42.663-19.48-6.359-41.745-1.813-57.227 13.672-10.878 10.879-16.356 25.105-16.453 39.363-15.565-13.332-37.874-17.649-58.103-9.271-14.213 5.888-24.72 16.938-30.264 30.073-9.28-18.273-28.237-30.802-50.133-30.802-15.385.002-29.319 6.189-39.468 16.204-1.581-20.433-14.301-39.263-34.53-47.642-14.213-5.887-29.456-5.503-42.665-.137 6.358-19.481 1.813-41.745-13.67-57.227-10.879-10.879-25.108-16.357-39.366-16.453 13.33-15.564 17.65-37.874 9.271-58.103-5.889-14.214-16.938-24.721-30.074-30.265 18.272-9.279 30.802-28.237 30.802-50.133-.001-15.384-6.188-29.319-16.202-39.469 20.431-1.58 39.261-14.3 47.64-34.53 5.887-14.213 5.504-29.455.136-42.664 19.482 6.359 41.745 1.813 57.228-13.671 10.879-10.879 16.358-25.106 16.453-39.365 15.565 13.33 37.875 17.649 58.103 9.27 14.214-5.887 24.72-16.936 30.265-30.072 9.279 18.271 28.236 30.8 50.132 30.8 15.385 0 29.319-6.187 39.47-16.201 1.581 20.432 14.302 39.26 34.53 47.637 14.214 5.889 29.456 5.506 42.663.14-6.357 19.482-1.811 41.744 13.674 57.226 10.876 10.879 25.104 16.358 39.361 16.455-13.33 15.566-17.647 37.874-9.267 58.101 5.886 14.214 16.934 24.721 30.066 30.265-18.271 9.281-30.797 28.237-30.795 50.134-.002 15.385 6.186 29.319 16.198 39.469-20.431 1.582-39.257 14.303-47.636 34.533z"/><path d="M343.074 167.697s-11.393-8.355-11.393-1.519c0 0 2.784 12.912 15.19 8.355.001 0 6.077-2.279-3.797-6.836zM371.937 179.597s6.33 7.849 13.419 5.063c-.001 0-5.064-10.38-13.419-5.063zM408.901 247.956s-4.558-.382-5.063-1.836c0 0-6.077-4.746-3.545-.189 0 0 16.963 18.482 26.331 0 0 0 2.785-3.292 5.569 0 2.785 3.292 7.09-1.772 0-6.583 0 0-5.063-4.304-8.607 3.038 0 0-4.558 8.101-14.685 5.57zM409.661 201.37s-4.526-6.329-9.985-2.785c0 0-1.915 2.785 1.124 5.57 3.038 2.785 9.367 0 8.861-2.785zM407.635 294.288s2.91-1.013 10.232 6.751c7.322 7.765 11.033-.088 15.761-6.795 0 0 2.7-11.772-8.102-16.16 0 0-22.67-15.865-25.851-19.916.001 0 .363 31.969 7.96 36.12zM396.158 371.591s9.169 10.466 13.53 0c0 0 9.087-35.107 1.998-45.572 0 0-4.055-11.953-5.739-6.077 0 0-5.063 18.906-9.789 27.344 0 0 6.075-1.013 6.751 6.751 0-.001 2.363 13.841-6.751 17.554zM319.191 457.334l21.604-18.567-24.305 12.827s-5.062 6.078 2.701 5.74zM319.669 445.474l24.63-14.313-26.238 8.175s-6.087 5.054 1.608 6.138zM321.973 430.05l27.718-6.571-27.481.229c-.001 0-7.29 3.076-.237 6.342zM327.459 419.638l28.459-1.266-27.039-4.917s-7.736 1.655-1.42 6.183zM333.473 408.064l27.735 6.502-24.69-12.067s-7.897-.505-3.045 5.565zM252.151 174.533c12.406 4.557 15.19-8.355 15.19-8.355 0-6.836-11.393 1.519-11.393 1.519-9.874 4.557-3.797 6.836-3.797 6.836zM227.086 179.597c-8.355-5.317-13.419 5.063-13.419 5.063 7.089 2.785 13.419-5.063 13.419-5.063zM166.829 245.93c2.785-3.292 5.57 0 5.57 0 9.368 18.482 26.331 0 26.331 0 2.532-4.557-3.544.189-3.544.189-.506 1.455-5.063 1.836-5.063 1.836a13.008 13.008 0 0 1-14.685-5.57c-3.544-7.342-8.608-3.038-8.608-3.038-7.09 4.811-2.786 9.875-.001 6.583zM198.223 204.155c3.038-2.785 1.124-5.57 1.124-5.57-5.459-3.544-9.985 2.785-9.985 2.785-.507 2.785 5.823 5.57 8.861 2.785zM173.497 278.084c-10.802 4.388-8.102 16.16-8.102 16.16 4.727 6.707 8.438 14.56 15.76 6.795 7.322-7.764 10.232-6.751 10.232-6.751 7.598-4.151 7.959-36.12 7.959-36.12-3.18 4.051-25.849 19.916-25.849 19.916zM187.336 326.019c-7.089 10.465 1.998 45.572 1.998 45.572 4.362 10.466 13.531 0 13.531 0-9.115-3.713-6.751-17.555-6.751-17.555.675-7.764 6.751-6.751 6.751-6.751-4.727-8.438-9.789-27.344-9.789-27.344-1.686-5.876-5.74 6.078-5.74 6.078zM258.227 438.767l21.604 18.567c7.765.338 2.702-5.74 2.702-5.74l-24.306-12.827zM279.354 445.474c7.696-1.084 1.608-6.138 1.608-6.138l-26.238-8.175 24.63 14.313zM249.332 423.479l27.717 6.571c7.054-3.266-.237-6.342-.237-6.342l-27.48-.229zM270.143 413.455l-27.039 4.917 28.459 1.266c6.317-4.528-1.42-6.183-1.42-6.183zM262.505 402.499l-24.691 12.067 27.735-6.502c4.852-6.07-3.044-5.565-3.044-5.565z"/><circle cx="299.721" cy="163.839" r="8.922"/><path d="M299.721 119.172c-101.854 0-184.424 82.569-184.424 184.423s82.569 184.424 184.424 184.424 184.423-82.569 184.423-184.424c0-101.854-82.568-184.423-184.423-184.423zm0 32.432c6.758 0 12.236 5.478 12.236 12.236s-5.479 12.236-12.236 12.236-12.235-5.478-12.235-12.236 5.477-12.236 12.235-12.236zm-6.049 309.098s-1.012 20.255-18.565 3.377c0 0-46.25-42.198-48.95-47.937 0 0-11.478 2.374-22.28-2.352 0 0-.394 10.463-6.78 4.726 0 0-5.374-9.451-10.1-4.726 0 0-4.389 7.091-7.089-3.713 0 0-4.724-14.854-10.463-13.842 0 0-7.766 7.766-10.804-.675 0 0-5.062-32.745-11.476-30.72 0 0-9.115 8.784-8.102-5.056s.672-23.629 1.349-28.692c0 0-17.553 15.188-8.776-9.791 0 0 4.053-22.953.338-22.616 0 0-17.216 3.037 1.687-15.529 0 0 11.142-21.935 3.376-22.61 0 0-18.565 4.052 8.102-14.515 0 0 30.718-16.204 37.133-30.382s3.038-10.989.506-12.761c0 0-11.14-1.013 6.076-8.102 0 0 8.355-14.685 26.837-21.521 0 0 6.076-7.342-14.178-2.025 0 0-9.115 3.544-13.418 5.823 0 0 22.533-23.292 38.23-8.861 0 0 17.976 1.266 25.318-2.025 0 0 4.81-12.153 19.748-9.874 0 0 8.355 2.025 5.823 8.102 0 0-1.013 11.646-13.419 17.216 0 0-21.773 13.419-33.167 17.216 0 0-17.723 8.102-2.279 6.583 0 0 29.116-7.596 35.699-5.57 0 0 5.57.253 12.659-8.355 7.09-8.608 8.861-6.329 11.9-2.025 0 0 5.822 5.57-6.584 10.634 0 0-8.861 11.646-21.267 8.608 0 0-18.988-1.772-30.128 8.861 0 0-9.621 9.115-17.976 3.039-8.354-6.077-6.583-4.877-6.835 1.959L203.54 242s16.204-23 16.204 0c0 24-10.803 14.329-16.204 15.341 0 0-1.013 31.132-6.076 37.208 0 0 15.529 5.439 0 21.98 0 0-6.414 18.414 34.433 58.923 0 0 4.725 4.985 3.374 9.036 0 0 1.689 5.7-12.151 1.987 0 0-3.037-.557-4.726 1.231 0 0 4.05 9.544 12.826 11.231 0 0 12.829 4.724 30.722-.004 0 0 9.451-8.443 17.216 7.761 0 .002 17.216 37.128 14.514 54.008zm6.048-74.118c-45.834 0-82.991-37.154-82.991-82.99 0-45.833 37.156-82.99 82.991-82.99s82.991 37.156 82.991 82.99c0 45.836-37.156 82.99-82.991 82.99zm162.264-126.037c-7.766.675 3.376 22.61 3.376 22.61 18.903 18.566 1.688 15.529 1.688 15.529-3.715-.337.338 22.616.338 22.616 8.776 24.979-8.776 9.791-8.776 9.791.677 5.063.337 14.853 1.35 28.692s-8.103 5.056-8.103 5.056c-6.414-2.025-11.476 30.72-11.476 30.72-3.038 8.44-10.804.675-10.804.675-5.74-1.013-10.464 13.842-10.464 13.842-2.7 10.804-7.089 3.713-7.089 3.713-4.726-4.726-10.1 4.726-10.1 4.726-6.386 5.737-6.779-4.726-6.779-4.726-10.802 4.726-22.28 2.352-22.28 2.352-2.7 5.738-48.949 47.937-48.949 47.937-17.555 16.878-18.566-3.377-18.566-3.377-2.7-16.88 14.516-54.006 14.516-54.006 7.764-16.204 17.217-7.762 17.217-7.762 17.891 4.728 30.72.004 30.72.004 8.777-1.688 12.827-11.233 12.827-11.233-1.688-1.788-4.726-1.234-4.726-1.234-13.84 3.713-12.152-1.993-12.152-1.993-1.35-4.051 3.375-9.048 3.375-9.048 40.847-40.509 34.433-58.946 34.433-58.946-15.528-16.541 0-22.027 0-22.027-5.063-6.076-6.076-37.115-6.076-37.115-5.4-1.013-16.203 8.659-16.203-15.341 0-23 16.203 0 16.203 0l-2.278-19.429c-.253-6.836 1.519-7.942-6.836-1.865-8.355 6.076-17.976-3.085-17.976-3.085-11.141-10.633-30.129-8.885-30.129-8.885-12.406 3.039-21.268-8.62-21.268-8.62-12.405-5.063-6.582-10.64-6.582-10.64 3.038-4.304 4.811-6.585 11.899 2.022 7.089 8.608 12.659 8.354 12.659 8.354 6.582-2.025 35.698 5.569 35.698 5.569 15.444 1.52-2.278-6.583-2.278-6.583-11.394-3.797-33.167-17.217-33.167-17.217-12.405-5.57-13.419-17.216-13.419-17.216-2.531-6.076 5.824-8.102 5.824-8.102 14.938-2.279 19.748 9.874 19.748 9.874 7.342 3.292 25.317 2.025 25.317 2.025 15.697-14.431 38.23 8.861 38.23 8.861-4.305-2.279-13.419-5.823-13.419-5.823-20.254-5.317-14.178 2.025-14.178 2.025 18.482 6.836 26.837 21.521 26.837 21.521 17.217 7.089 6.076 8.102 6.076 8.102-2.531 1.772-5.908-1.417.507 12.761 6.414 14.178 37.132 30.382 37.132 30.382 26.668 18.566 8.103 14.514 8.103 14.514z"/><circle cx="299.72" cy="303.594" r="5.753"/><path d="M359.644 316.963s16.738-31.566-18.029-18.905l-23.843-.892a19.137 19.137 0 0 0-2.572-4.861c7.477-8.116 26.236-26.78 36.127-21.412 0 0-10.594-34.045-26.229-.508l-17.139 15.913a18.956 18.956 0 0 0-3.06-1.152L304 260.909c12.659-34.769-18.904-18.187-18.904-18.187 11.321 3.355 10.838 32.323 10.336 42.193a19.055 19.055 0 0 0-5.098 1.966l-17.769-16.497c-15.634-33.537-26.228.508-26.228.508 10.38-5.634 30.525 15.197 37.147 22.529a19.09 19.09 0 0 0-2.21 4.982l-24.432.909c-34.767-12.66-18.12 18.905-18.12 18.905 3.385-11.416 32.726-10.83 42.323-10.324a19.073 19.073 0 0 0 1.958 5.081l-16.626 17.912c-33.537 15.63.554 26.181.554 26.181-5.679-10.47 15.49-30.805 22.63-37.229a19.069 19.069 0 0 0 4.997 2.21l.887 23.947c-12.663 34.765 18.901 18.278 18.901 18.278-11.178-3.315-10.846-31.734-10.353-41.996a19.103 19.103 0 0 0 6.996-3.188c7.8 7.126 27.117 26.255 21.649 36.331 0 0 34.158-10.485.619-26.117l-16.229-17.49a19.012 19.012 0 0 0 1.614-5.231c10.555-.477 37.744-.608 41.002 10.381zm-71.43-13.368c0-6.354 5.151-11.507 11.507-11.507 6.354 0 11.506 5.152 11.506 11.507s-5.151 11.506-11.506 11.506c-6.356 0-11.507-5.152-11.507-11.506zM150.404 254.145s-31.86 139.202 69.973 154.383c-.001-.001-82.632-23.882-69.973-154.383zM380.636 408.527c101.834-15.181 69.973-154.383 69.973-154.383 12.659 130.502-69.973 154.383-69.973 154.383z"/></svg>